<mxfile host="app.diagrams.net" modified="2024-05-04T08:51:26.452Z" agent="Mozilla/5.0 (Windows NT 10.0; Win64; x64) AppleWebKit/537.36 (KHTML, like Gecko) Chrome/124.0.0.0 Safari/537.36 Edg/124.0.0.0" etag="RB4WyFB9SEHCdSJM1hJ6" version="24.3.1" type="github">
  <diagram id="C5RBs43oDa-KdzZeNtuy" name="Page-1">
    <mxGraphModel dx="996" dy="586" grid="0" gridSize="10" guides="1" tooltips="1" connect="1" arrows="1" fold="1" page="0" pageScale="1" pageWidth="827" pageHeight="1169" math="0" shadow="0">
      <root>
        <mxCell id="WIyWlLk6GJQsqaUBKTNV-0" />
        <mxCell id="WIyWlLk6GJQsqaUBKTNV-1" parent="WIyWlLk6GJQsqaUBKTNV-0" />
        <mxCell id="9IDr1nRzrSuw46ZfomJ0-3" value="" style="edgeStyle=orthogonalEdgeStyle;rounded=0;orthogonalLoop=1;jettySize=auto;html=1;" edge="1" parent="WIyWlLk6GJQsqaUBKTNV-1" source="9IDr1nRzrSuw46ZfomJ0-0" target="9IDr1nRzrSuw46ZfomJ0-2">
          <mxGeometry relative="1" as="geometry" />
        </mxCell>
        <mxCell id="9IDr1nRzrSuw46ZfomJ0-0" value="开始" style="strokeWidth=2;html=1;shape=mxgraph.flowchart.terminator;whiteSpace=wrap;fontSize=14;" vertex="1" parent="WIyWlLk6GJQsqaUBKTNV-1">
          <mxGeometry x="205" y="44" width="100" height="60" as="geometry" />
        </mxCell>
        <mxCell id="9IDr1nRzrSuw46ZfomJ0-1" value="结束" style="strokeWidth=2;html=1;shape=mxgraph.flowchart.terminator;whiteSpace=wrap;fontSize=14;" vertex="1" parent="WIyWlLk6GJQsqaUBKTNV-1">
          <mxGeometry x="200" y="585" width="100" height="60" as="geometry" />
        </mxCell>
        <mxCell id="9IDr1nRzrSuw46ZfomJ0-30" style="edgeStyle=orthogonalEdgeStyle;rounded=0;orthogonalLoop=1;jettySize=auto;html=1;" edge="1" parent="WIyWlLk6GJQsqaUBKTNV-1" source="9IDr1nRzrSuw46ZfomJ0-2" target="9IDr1nRzrSuw46ZfomJ0-5">
          <mxGeometry relative="1" as="geometry" />
        </mxCell>
        <mxCell id="9IDr1nRzrSuw46ZfomJ0-31" style="edgeStyle=orthogonalEdgeStyle;rounded=0;orthogonalLoop=1;jettySize=auto;html=1;" edge="1" parent="WIyWlLk6GJQsqaUBKTNV-1" source="9IDr1nRzrSuw46ZfomJ0-2" target="9IDr1nRzrSuw46ZfomJ0-4">
          <mxGeometry relative="1" as="geometry" />
        </mxCell>
        <mxCell id="9IDr1nRzrSuw46ZfomJ0-2" value="点击搜索按钮" style="rounded=1;whiteSpace=wrap;html=1;absoluteArcSize=1;arcSize=14;strokeWidth=2;fontSize=14;" vertex="1" parent="WIyWlLk6GJQsqaUBKTNV-1">
          <mxGeometry x="200" y="148" width="110" height="50" as="geometry" />
        </mxCell>
        <mxCell id="9IDr1nRzrSuw46ZfomJ0-11" value="" style="edgeStyle=orthogonalEdgeStyle;rounded=0;orthogonalLoop=1;jettySize=auto;html=1;" edge="1" parent="WIyWlLk6GJQsqaUBKTNV-1" source="9IDr1nRzrSuw46ZfomJ0-4" target="9IDr1nRzrSuw46ZfomJ0-10">
          <mxGeometry relative="1" as="geometry" />
        </mxCell>
        <mxCell id="9IDr1nRzrSuw46ZfomJ0-16" style="edgeStyle=orthogonalEdgeStyle;rounded=0;orthogonalLoop=1;jettySize=auto;html=1;entryX=0.5;entryY=0;entryDx=0;entryDy=0;" edge="1" parent="WIyWlLk6GJQsqaUBKTNV-1" source="9IDr1nRzrSuw46ZfomJ0-4" target="9IDr1nRzrSuw46ZfomJ0-13">
          <mxGeometry relative="1" as="geometry" />
        </mxCell>
        <mxCell id="9IDr1nRzrSuw46ZfomJ0-4" value="输入查询单词" style="rounded=1;whiteSpace=wrap;html=1;absoluteArcSize=1;arcSize=14;strokeWidth=2;fontSize=14;" vertex="1" parent="WIyWlLk6GJQsqaUBKTNV-1">
          <mxGeometry x="280" y="290" width="110" height="50" as="geometry" />
        </mxCell>
        <mxCell id="9IDr1nRzrSuw46ZfomJ0-15" style="edgeStyle=orthogonalEdgeStyle;rounded=0;orthogonalLoop=1;jettySize=auto;html=1;entryX=0.5;entryY=0;entryDx=0;entryDy=0;" edge="1" parent="WIyWlLk6GJQsqaUBKTNV-1" source="9IDr1nRzrSuw46ZfomJ0-5" target="9IDr1nRzrSuw46ZfomJ0-13">
          <mxGeometry relative="1" as="geometry" />
        </mxCell>
        <mxCell id="9IDr1nRzrSuw46ZfomJ0-5" value="展示历史搜索列表" style="rounded=1;whiteSpace=wrap;html=1;absoluteArcSize=1;arcSize=14;strokeWidth=2;fontSize=14;" vertex="1" parent="WIyWlLk6GJQsqaUBKTNV-1">
          <mxGeometry x="110" y="290" width="125" height="50" as="geometry" />
        </mxCell>
        <mxCell id="9IDr1nRzrSuw46ZfomJ0-10" value="Redis存储搜索记录" style="rounded=1;whiteSpace=wrap;html=1;absoluteArcSize=1;arcSize=14;strokeWidth=2;fontSize=14;" vertex="1" parent="WIyWlLk6GJQsqaUBKTNV-1">
          <mxGeometry x="440" y="290" width="130" height="50" as="geometry" />
        </mxCell>
        <mxCell id="9IDr1nRzrSuw46ZfomJ0-32" value="" style="edgeStyle=orthogonalEdgeStyle;rounded=0;orthogonalLoop=1;jettySize=auto;html=1;" edge="1" parent="WIyWlLk6GJQsqaUBKTNV-1" source="9IDr1nRzrSuw46ZfomJ0-12" target="9IDr1nRzrSuw46ZfomJ0-1">
          <mxGeometry relative="1" as="geometry" />
        </mxCell>
        <mxCell id="9IDr1nRzrSuw46ZfomJ0-12" value="展示单词详细信息" style="rounded=1;whiteSpace=wrap;html=1;absoluteArcSize=1;arcSize=14;strokeWidth=2;fontSize=14;" vertex="1" parent="WIyWlLk6GJQsqaUBKTNV-1">
          <mxGeometry x="190" y="490" width="120" height="50" as="geometry" />
        </mxCell>
        <mxCell id="9IDr1nRzrSuw46ZfomJ0-14" value="" style="edgeStyle=orthogonalEdgeStyle;rounded=0;orthogonalLoop=1;jettySize=auto;html=1;" edge="1" parent="WIyWlLk6GJQsqaUBKTNV-1" source="9IDr1nRzrSuw46ZfomJ0-13" target="9IDr1nRzrSuw46ZfomJ0-12">
          <mxGeometry relative="1" as="geometry" />
        </mxCell>
        <mxCell id="9IDr1nRzrSuw46ZfomJ0-13" value="确认搜索" style="rounded=1;whiteSpace=wrap;html=1;absoluteArcSize=1;arcSize=14;strokeWidth=2;fontSize=14;" vertex="1" parent="WIyWlLk6GJQsqaUBKTNV-1">
          <mxGeometry x="195" y="390" width="110" height="50" as="geometry" />
        </mxCell>
      </root>
    </mxGraphModel>
  </diagram>
</mxfile>
